%TF.GenerationSoftware,KiCad,Pcbnew,6.0.2+dfsg-1*%
%TF.CreationDate,2022-12-14T15:09:21+00:00*%
%TF.ProjectId,Backplane,4261636b-706c-4616-9e65-2e6b69636164,1*%
%TF.SameCoordinates,Original*%
%TF.FileFunction,Soldermask,Top*%
%TF.FilePolarity,Negative*%
%FSLAX46Y46*%
G04 Gerber Fmt 4.6, Leading zero omitted, Abs format (unit mm)*
G04 Created by KiCad (PCBNEW 6.0.2+dfsg-1) date 2022-12-14 15:09:21*
%MOMM*%
%LPD*%
G01*
G04 APERTURE LIST*
G04 Aperture macros list*
%AMRoundRect*
0 Rectangle with rounded corners*
0 $1 Rounding radius*
0 $2 $3 $4 $5 $6 $7 $8 $9 X,Y pos of 4 corners*
0 Add a 4 corners polygon primitive as box body*
4,1,4,$2,$3,$4,$5,$6,$7,$8,$9,$2,$3,0*
0 Add four circle primitives for the rounded corners*
1,1,$1+$1,$2,$3*
1,1,$1+$1,$4,$5*
1,1,$1+$1,$6,$7*
1,1,$1+$1,$8,$9*
0 Add four rect primitives between the rounded corners*
20,1,$1+$1,$2,$3,$4,$5,0*
20,1,$1+$1,$4,$5,$6,$7,0*
20,1,$1+$1,$6,$7,$8,$9,0*
20,1,$1+$1,$8,$9,$2,$3,0*%
G04 Aperture macros list end*
%ADD10R,7.620000X1.780000*%
%ADD11RoundRect,0.381000X-0.762000X-0.381000X0.762000X-0.381000X0.762000X0.381000X-0.762000X0.381000X0*%
%ADD12RoundRect,0.381000X0.762000X0.381000X-0.762000X0.381000X-0.762000X-0.381000X0.762000X-0.381000X0*%
%ADD13RoundRect,0.381000X-0.755235X-0.394241X0.768533X-0.367643X0.755235X0.394241X-0.768533X0.367643X0*%
%ADD14C,2.000000*%
%ADD15C,5.000000*%
%ADD16C,1.600000*%
%ADD17O,1.600000X1.600000*%
%ADD18R,1.700000X1.700000*%
%ADD19O,1.700000X1.700000*%
%ADD20R,3.000000X3.000000*%
%ADD21C,3.000000*%
%ADD22R,1.800000X1.800000*%
%ADD23C,1.800000*%
G04 APERTURE END LIST*
D10*
%TO.C,U1*%
X41275000Y-58166000D03*
X41275000Y-60706000D03*
X41275000Y-63246000D03*
X41275000Y-65786000D03*
X41275000Y-70866000D03*
X41275000Y-73406000D03*
X41275000Y-75946000D03*
X41275000Y-78486000D03*
X41275000Y-81026000D03*
X41275000Y-83566000D03*
X41275000Y-86106000D03*
X41275000Y-88646000D03*
X41275000Y-91186000D03*
X41275000Y-93726000D03*
X41275000Y-96266000D03*
X41275000Y-98806000D03*
X41275000Y-101346000D03*
X41275000Y-103886000D03*
X41275000Y-106426000D03*
X41275000Y-108966000D03*
X41275000Y-111506000D03*
X41275000Y-114046000D03*
X41275000Y-116586000D03*
X41275000Y-119126000D03*
X41275000Y-121666000D03*
X41275000Y-124206000D03*
X41275000Y-126746000D03*
%TD*%
D11*
%TO.C,U5*%
X145540000Y-57980000D03*
D12*
X145540000Y-60520000D03*
D11*
X145540000Y-63060000D03*
X145540000Y-65600000D03*
X145540000Y-70680000D03*
X145540000Y-73220000D03*
X145540000Y-75760000D03*
X145540000Y-78300000D03*
X145540000Y-80840000D03*
X145540000Y-83380000D03*
X145540000Y-85920000D03*
X145540000Y-88460000D03*
X145540000Y-91000000D03*
X145540000Y-93540000D03*
X145540000Y-96080000D03*
X145540000Y-98620000D03*
X145540000Y-101160000D03*
X145540000Y-103700000D03*
X145540000Y-106240000D03*
X145540000Y-108780000D03*
X145540000Y-111320000D03*
X145540000Y-113860000D03*
X145540000Y-116400000D03*
X145540000Y-118940000D03*
X145540000Y-121480000D03*
X145540000Y-124020000D03*
X145540000Y-126560000D03*
X140460000Y-57980000D03*
X140460000Y-60520000D03*
X140460000Y-63060000D03*
X140460000Y-65600000D03*
X140460000Y-70680000D03*
D13*
X140460000Y-73220000D03*
D11*
X140460000Y-75760000D03*
X140460000Y-78300000D03*
X140460000Y-80840000D03*
X140460000Y-83380000D03*
X140460000Y-85920000D03*
X140460000Y-88460000D03*
X140460000Y-91000000D03*
X140460000Y-93540000D03*
X140460000Y-96080000D03*
X140460000Y-98620000D03*
X140460000Y-101160000D03*
X140460000Y-103700000D03*
X140460000Y-106240000D03*
X140460000Y-108780000D03*
X140460000Y-111320000D03*
X140460000Y-113860000D03*
X140460000Y-116400000D03*
X140460000Y-118940000D03*
X140460000Y-121480000D03*
X140460000Y-124020000D03*
X140460000Y-126560000D03*
%TD*%
D14*
%TO.C,SW1*%
X87000000Y-53250000D03*
X80500000Y-53250000D03*
X87000000Y-48750000D03*
X80500000Y-48750000D03*
%TD*%
D11*
%TO.C,U6*%
X105540000Y-57980000D03*
D12*
X105540000Y-60520000D03*
D11*
X105540000Y-63060000D03*
X105540000Y-65600000D03*
X105540000Y-70680000D03*
X105540000Y-73220000D03*
X105540000Y-75760000D03*
X105540000Y-78300000D03*
X105540000Y-80840000D03*
X105540000Y-83380000D03*
X105540000Y-85920000D03*
X105540000Y-88460000D03*
X105540000Y-91000000D03*
X105540000Y-93540000D03*
X105540000Y-96080000D03*
X105540000Y-98620000D03*
X105540000Y-101160000D03*
X105540000Y-103700000D03*
X105540000Y-106240000D03*
X105540000Y-108780000D03*
X105540000Y-111320000D03*
X105540000Y-113860000D03*
X105540000Y-116400000D03*
X105540000Y-118940000D03*
X105540000Y-121480000D03*
X105540000Y-124020000D03*
X105540000Y-126560000D03*
X100460000Y-57980000D03*
X100460000Y-60520000D03*
X100460000Y-63060000D03*
X100460000Y-65600000D03*
X100460000Y-70680000D03*
D13*
X100460000Y-73220000D03*
D11*
X100460000Y-75760000D03*
X100460000Y-78300000D03*
X100460000Y-80840000D03*
X100460000Y-83380000D03*
X100460000Y-85920000D03*
X100460000Y-88460000D03*
X100460000Y-91000000D03*
X100460000Y-93540000D03*
X100460000Y-96080000D03*
X100460000Y-98620000D03*
X100460000Y-101160000D03*
X100460000Y-103700000D03*
X100460000Y-106240000D03*
X100460000Y-108780000D03*
X100460000Y-111320000D03*
X100460000Y-113860000D03*
X100460000Y-116400000D03*
X100460000Y-118940000D03*
X100460000Y-121480000D03*
X100460000Y-124020000D03*
X100460000Y-126560000D03*
%TD*%
D15*
%TO.C,H2*%
X42164000Y-133477000D03*
%TD*%
D16*
%TO.C,R1*%
X129810000Y-51000000D03*
D17*
X122190000Y-51000000D03*
%TD*%
D11*
%TO.C,U2*%
X125540000Y-57980000D03*
D12*
X125540000Y-60520000D03*
D11*
X125540000Y-63060000D03*
X125540000Y-65600000D03*
X125540000Y-70680000D03*
X125540000Y-73220000D03*
X125540000Y-75760000D03*
X125540000Y-78300000D03*
X125540000Y-80840000D03*
X125540000Y-83380000D03*
X125540000Y-85920000D03*
X125540000Y-88460000D03*
X125540000Y-91000000D03*
X125540000Y-93540000D03*
X125540000Y-96080000D03*
X125540000Y-98620000D03*
X125540000Y-101160000D03*
X125540000Y-103700000D03*
X125540000Y-106240000D03*
X125540000Y-108780000D03*
X125540000Y-111320000D03*
X125540000Y-113860000D03*
X125540000Y-116400000D03*
X125540000Y-118940000D03*
X125540000Y-121480000D03*
X125540000Y-124020000D03*
X125540000Y-126560000D03*
X120460000Y-57980000D03*
X120460000Y-60520000D03*
X120460000Y-63060000D03*
X120460000Y-65600000D03*
X120460000Y-70680000D03*
D13*
X120460000Y-73220000D03*
D11*
X120460000Y-75760000D03*
X120460000Y-78300000D03*
X120460000Y-80840000D03*
X120460000Y-83380000D03*
X120460000Y-85920000D03*
X120460000Y-88460000D03*
X120460000Y-91000000D03*
X120460000Y-93540000D03*
X120460000Y-96080000D03*
X120460000Y-98620000D03*
X120460000Y-101160000D03*
X120460000Y-103700000D03*
X120460000Y-106240000D03*
X120460000Y-108780000D03*
X120460000Y-111320000D03*
X120460000Y-113860000D03*
X120460000Y-116400000D03*
X120460000Y-118940000D03*
X120460000Y-121480000D03*
X120460000Y-124020000D03*
X120460000Y-126560000D03*
%TD*%
D15*
%TO.C,H4*%
X105000000Y-135000000D03*
%TD*%
D18*
%TO.C,J3*%
X77000000Y-52000000D03*
D19*
X77000000Y-49460000D03*
%TD*%
D15*
%TO.C,H1*%
X106000000Y-49000000D03*
%TD*%
D18*
%TO.C,J2*%
X56642000Y-50546000D03*
D19*
X54102000Y-50546000D03*
X51562000Y-50546000D03*
%TD*%
D20*
%TO.C,J1*%
X68834000Y-51054000D03*
D21*
X63754000Y-51054000D03*
%TD*%
D22*
%TO.C,D1*%
X116000000Y-48000000D03*
D23*
X116000000Y-50540000D03*
%TD*%
D11*
%TO.C,U3*%
X165540000Y-57980000D03*
D12*
X165540000Y-60520000D03*
D11*
X165540000Y-63060000D03*
X165540000Y-65600000D03*
X165540000Y-70680000D03*
X165540000Y-73220000D03*
X165540000Y-75760000D03*
X165540000Y-78300000D03*
X165540000Y-80840000D03*
X165540000Y-83380000D03*
X165540000Y-85920000D03*
X165540000Y-88460000D03*
X165540000Y-91000000D03*
X165540000Y-93540000D03*
X165540000Y-96080000D03*
X165540000Y-98620000D03*
X165540000Y-101160000D03*
X165540000Y-103700000D03*
X165540000Y-106240000D03*
X165540000Y-108780000D03*
X165540000Y-111320000D03*
X165540000Y-113860000D03*
X165540000Y-116400000D03*
X165540000Y-118940000D03*
X165540000Y-121480000D03*
X165540000Y-124020000D03*
X165540000Y-126560000D03*
X160460000Y-57980000D03*
X160460000Y-60520000D03*
X160460000Y-63060000D03*
X160460000Y-65600000D03*
X160460000Y-70680000D03*
D13*
X160460000Y-73220000D03*
D11*
X160460000Y-75760000D03*
X160460000Y-78300000D03*
X160460000Y-80840000D03*
X160460000Y-83380000D03*
X160460000Y-85920000D03*
X160460000Y-88460000D03*
X160460000Y-91000000D03*
X160460000Y-93540000D03*
X160460000Y-96080000D03*
X160460000Y-98620000D03*
X160460000Y-101160000D03*
X160460000Y-103700000D03*
X160460000Y-106240000D03*
X160460000Y-108780000D03*
X160460000Y-111320000D03*
X160460000Y-113860000D03*
X160460000Y-116400000D03*
X160460000Y-118940000D03*
X160460000Y-121480000D03*
X160460000Y-124020000D03*
X160460000Y-126560000D03*
%TD*%
D15*
%TO.C,H5*%
X176000000Y-134874000D03*
%TD*%
%TO.C,H6*%
X176000000Y-49000000D03*
%TD*%
D11*
%TO.C,U9*%
X85540000Y-57980000D03*
D12*
X85540000Y-60520000D03*
D11*
X85540000Y-63060000D03*
X85540000Y-65600000D03*
X85540000Y-70680000D03*
X85540000Y-73220000D03*
X85540000Y-75760000D03*
X85540000Y-78300000D03*
X85540000Y-80840000D03*
X85540000Y-83380000D03*
X85540000Y-85920000D03*
X85540000Y-88460000D03*
X85540000Y-91000000D03*
X85540000Y-93540000D03*
X85540000Y-96080000D03*
X85540000Y-98620000D03*
X85540000Y-101160000D03*
X85540000Y-103700000D03*
X85540000Y-106240000D03*
X85540000Y-108780000D03*
X85540000Y-111320000D03*
X85540000Y-113860000D03*
X85540000Y-116400000D03*
X85540000Y-118940000D03*
X85540000Y-121480000D03*
X85540000Y-124020000D03*
X85540000Y-126560000D03*
X80460000Y-57980000D03*
X80460000Y-60520000D03*
X80460000Y-63060000D03*
X80460000Y-65600000D03*
X80460000Y-70680000D03*
D13*
X80460000Y-73220000D03*
D11*
X80460000Y-75760000D03*
X80460000Y-78300000D03*
X80460000Y-80840000D03*
X80460000Y-83380000D03*
X80460000Y-85920000D03*
X80460000Y-88460000D03*
X80460000Y-91000000D03*
X80460000Y-93540000D03*
X80460000Y-96080000D03*
X80460000Y-98620000D03*
X80460000Y-101160000D03*
X80460000Y-103700000D03*
X80460000Y-106240000D03*
X80460000Y-108780000D03*
X80460000Y-111320000D03*
X80460000Y-113860000D03*
X80460000Y-116400000D03*
X80460000Y-118940000D03*
X80460000Y-121480000D03*
X80460000Y-124020000D03*
X80460000Y-126560000D03*
%TD*%
D15*
%TO.C,H3*%
X42291000Y-50419000D03*
%TD*%
D11*
%TO.C,U4*%
X65540000Y-57980000D03*
D12*
X65540000Y-60520000D03*
D11*
X65540000Y-63060000D03*
X65540000Y-65600000D03*
X65540000Y-70680000D03*
X65540000Y-73220000D03*
X65540000Y-75760000D03*
X65540000Y-78300000D03*
X65540000Y-80840000D03*
X65540000Y-83380000D03*
X65540000Y-85920000D03*
X65540000Y-88460000D03*
X65540000Y-91000000D03*
X65540000Y-93540000D03*
X65540000Y-96080000D03*
X65540000Y-98620000D03*
X65540000Y-101160000D03*
X65540000Y-103700000D03*
X65540000Y-106240000D03*
X65540000Y-108780000D03*
X65540000Y-111320000D03*
X65540000Y-113860000D03*
X65540000Y-116400000D03*
X65540000Y-118940000D03*
X65540000Y-121480000D03*
X65540000Y-124020000D03*
X65540000Y-126560000D03*
X60460000Y-57980000D03*
X60460000Y-60520000D03*
X60460000Y-63060000D03*
X60460000Y-65600000D03*
X60460000Y-70680000D03*
D13*
X60460000Y-73220000D03*
D11*
X60460000Y-75760000D03*
X60460000Y-78300000D03*
X60460000Y-80840000D03*
X60460000Y-83380000D03*
X60460000Y-85920000D03*
X60460000Y-88460000D03*
X60460000Y-91000000D03*
X60460000Y-93540000D03*
X60460000Y-96080000D03*
X60460000Y-98620000D03*
X60460000Y-101160000D03*
X60460000Y-103700000D03*
X60460000Y-106240000D03*
X60460000Y-108780000D03*
X60460000Y-111320000D03*
X60460000Y-113860000D03*
X60460000Y-116400000D03*
X60460000Y-118940000D03*
X60460000Y-121480000D03*
X60460000Y-124020000D03*
X60460000Y-126560000D03*
%TD*%
M02*
