M48
; DRILL file {KiCad 6.0.2+dfsg-1} date Wed 14 Dec 2022 15:09:18 GMT
; FORMAT={-:-/ absolute / inch / decimal}
; #@! TF.CreationDate,2022-12-14T15:09:18+00:00
; #@! TF.GenerationSoftware,Kicad,Pcbnew,6.0.2+dfsg-1
; #@! TF.FileFunction,Plated,1,2,PTH
FMAT,2
INCH
; #@! TA.AperFunction,Plated,PTH,ViaDrill
T1C0.0157
; #@! TA.AperFunction,Plated,PTH,ComponentDrill
T2C0.0315
; #@! TA.AperFunction,Plated,PTH,ComponentDrill
T3C0.0354
; #@! TA.AperFunction,Plated,PTH,ComponentDrill
T4C0.0394
; #@! TA.AperFunction,Plated,PTH,ComponentDrill
T5C0.0433
; #@! TA.AperFunction,Plated,PTH,ComponentDrill
T6C0.0598
; #@! TA.AperFunction,Plated,PTH,ComponentDrill
T7C0.0984
%
G90
G05
T1
X1.8504Y-2.2585
X1.8602Y-4.124
X1.8602Y-4.2224
X1.8602Y-4.3215
X1.8602Y-4.4291
X1.8602Y-4.5215
X1.8602Y-4.8228
X1.8602Y-4.9215
X1.8701Y-2.3425
X1.8701Y-2.4409
X1.8701Y-2.6378
X1.8701Y-3.0315
X1.8701Y-3.1299
X1.8701Y-3.2215
X1.8701Y-3.3268
X1.8701Y-3.4252
X1.8701Y-3.5236
X1.8701Y-3.622
X1.8701Y-3.7215
X1.8701Y-3.8215
X1.8701Y-3.9215
X1.8701Y-4.0215
X1.8701Y-4.626
X1.8701Y-4.7244
X1.8701Y-5.0295
X1.88Y-1.92
X1.9882Y-2.6378
X2.0039Y-2.937
X2.0079Y-2.4409
X2.0512Y-2.8346
X2.0788Y-2.7047
X2.14Y-2.26
X2.15Y-2.44
X2.15Y-2.53
X2.49Y-2.27
X2.49Y-2.48
X2.49Y-2.57
X2.78Y-2.97
X2.8353Y-2.7047
X2.8425Y-2.4685
X2.85Y-3.27
X2.85Y-3.37
X2.85Y-3.47
X2.8504Y-2.3465
X2.8819Y-2.2126
X2.8992Y-4.1827
X2.9528Y-2.7638
X2.9606Y-2.6141
X2.9685Y-2.2126
X3.0236Y-2.4488
X3.2598Y-2.5354
X3.2874Y-2.2559
X3.4488Y-2.2598
X3.61Y-3.69
X3.6496Y-2.4409
X3.6575Y-3.4449
X3.6614Y-2.2559
X3.6654Y-3.0945
X3.6654Y-3.1929
X3.6772Y-4.7953
X3.7087Y-3.8898
X3.7126Y-2.5866
X3.7205Y-4.9803
X4.2402Y-2.2559
X4.3937Y-3.9921
X4.4055Y-3.2087
X4.4528Y-2.5984
X4.4724Y-2.4567
X4.8504Y-2.4724
X4.8583Y-2.2559
X5.0197Y-2.2638
X5.2047Y-2.6024
X5.2323Y-4.9843
X5.26Y-4.1
X5.2835Y-2.4331
X5.626Y-2.3819
X5.6457Y-2.4882
X6.0197Y-5.0197
X6.0276Y-2.4488
X6.0512Y-2.6142
X6.41Y-2.46
X6.42Y-2.27
X6.69Y-2.3
X6.79Y-3.97
X7.5Y-3.79
T2
X4.8106Y-2.0079
X5.1106Y-2.0079
T3
X4.5669Y-1.8898
X4.5669Y-1.9898
T4
X2.03Y-1.99
X2.13Y-1.99
X2.23Y-1.99
X2.3803Y-2.2827
X2.3803Y-2.3827
X2.3803Y-2.4827
X2.3803Y-2.5827
X2.3803Y-2.7827
X2.3803Y-2.8827
X2.3803Y-2.9827
X2.3803Y-3.0827
X2.3803Y-3.1827
X2.3803Y-3.2827
X2.3803Y-3.3827
X2.3803Y-3.4827
X2.3803Y-3.5827
X2.3803Y-3.6827
X2.3803Y-3.7827
X2.3803Y-3.8827
X2.3803Y-3.9827
X2.3803Y-4.0827
X2.3803Y-4.1827
X2.3803Y-4.2827
X2.3803Y-4.3827
X2.3803Y-4.4827
X2.3803Y-4.5827
X2.3803Y-4.6827
X2.3803Y-4.7827
X2.3803Y-4.8827
X2.3803Y-4.9827
X2.5803Y-2.2827
X2.5803Y-2.3827
X2.5803Y-2.4827
X2.5803Y-2.5827
X2.5803Y-2.7827
X2.5803Y-2.8827
X2.5803Y-2.9827
X2.5803Y-3.0827
X2.5803Y-3.1827
X2.5803Y-3.2827
X2.5803Y-3.3827
X2.5803Y-3.4827
X2.5803Y-3.5827
X2.5803Y-3.6827
X2.5803Y-3.7827
X2.5803Y-3.8827
X2.5803Y-3.9827
X2.5803Y-4.0827
X2.5803Y-4.1827
X2.5803Y-4.2827
X2.5803Y-4.3827
X2.5803Y-4.4827
X2.5803Y-4.5827
X2.5803Y-4.6827
X2.5803Y-4.7827
X2.5803Y-4.8827
X2.5803Y-4.9827
X3.0315Y-1.9472
X3.0315Y-2.0472
X3.1677Y-2.2827
X3.1677Y-2.3827
X3.1677Y-2.4827
X3.1677Y-2.5827
X3.1677Y-2.7827
X3.1677Y-2.8827
X3.1677Y-2.9827
X3.1677Y-3.0827
X3.1677Y-3.1827
X3.1677Y-3.2827
X3.1677Y-3.3827
X3.1677Y-3.4827
X3.1677Y-3.5827
X3.1677Y-3.6827
X3.1677Y-3.7827
X3.1677Y-3.8827
X3.1677Y-3.9827
X3.1677Y-4.0827
X3.1677Y-4.1827
X3.1677Y-4.2827
X3.1677Y-4.3827
X3.1677Y-4.4827
X3.1677Y-4.5827
X3.1677Y-4.6827
X3.1677Y-4.7827
X3.1677Y-4.8827
X3.1677Y-4.9827
X3.3677Y-2.2827
X3.3677Y-2.3827
X3.3677Y-2.4827
X3.3677Y-2.5827
X3.3677Y-2.7827
X3.3677Y-2.8827
X3.3677Y-2.9827
X3.3677Y-3.0827
X3.3677Y-3.1827
X3.3677Y-3.2827
X3.3677Y-3.3827
X3.3677Y-3.4827
X3.3677Y-3.5827
X3.3677Y-3.6827
X3.3677Y-3.7827
X3.3677Y-3.8827
X3.3677Y-3.9827
X3.3677Y-4.0827
X3.3677Y-4.1827
X3.3677Y-4.2827
X3.3677Y-4.3827
X3.3677Y-4.4827
X3.3677Y-4.5827
X3.3677Y-4.6827
X3.3677Y-4.7827
X3.3677Y-4.8827
X3.3677Y-4.9827
X3.9551Y-2.2827
X3.9551Y-2.3827
X3.9551Y-2.4827
X3.9551Y-2.5827
X3.9551Y-2.7827
X3.9551Y-2.8827
X3.9551Y-2.9827
X3.9551Y-3.0827
X3.9551Y-3.1827
X3.9551Y-3.2827
X3.9551Y-3.3827
X3.9551Y-3.4827
X3.9551Y-3.5827
X3.9551Y-3.6827
X3.9551Y-3.7827
X3.9551Y-3.8827
X3.9551Y-3.9827
X3.9551Y-4.0827
X3.9551Y-4.1827
X3.9551Y-4.2827
X3.9551Y-4.3827
X3.9551Y-4.4827
X3.9551Y-4.5827
X3.9551Y-4.6827
X3.9551Y-4.7827
X3.9551Y-4.8827
X3.9551Y-4.9827
X4.1551Y-2.2827
X4.1551Y-2.3827
X4.1551Y-2.4827
X4.1551Y-2.5827
X4.1551Y-2.7827
X4.1551Y-2.8827
X4.1551Y-2.9827
X4.1551Y-3.0827
X4.1551Y-3.1827
X4.1551Y-3.2827
X4.1551Y-3.3827
X4.1551Y-3.4827
X4.1551Y-3.5827
X4.1551Y-3.6827
X4.1551Y-3.7827
X4.1551Y-3.8827
X4.1551Y-3.9827
X4.1551Y-4.0827
X4.1551Y-4.1827
X4.1551Y-4.2827
X4.1551Y-4.3827
X4.1551Y-4.4827
X4.1551Y-4.5827
X4.1551Y-4.6827
X4.1551Y-4.7827
X4.1551Y-4.8827
X4.1551Y-4.9827
X4.7425Y-2.2827
X4.7425Y-2.3827
X4.7425Y-2.4827
X4.7425Y-2.5827
X4.7425Y-2.7827
X4.7425Y-2.8827
X4.7425Y-2.9827
X4.7425Y-3.0827
X4.7425Y-3.1827
X4.7425Y-3.2827
X4.7425Y-3.3827
X4.7425Y-3.4827
X4.7425Y-3.5827
X4.7425Y-3.6827
X4.7425Y-3.7827
X4.7425Y-3.8827
X4.7425Y-3.9827
X4.7425Y-4.0827
X4.7425Y-4.1827
X4.7425Y-4.2827
X4.7425Y-4.3827
X4.7425Y-4.4827
X4.7425Y-4.5827
X4.7425Y-4.6827
X4.7425Y-4.7827
X4.7425Y-4.8827
X4.7425Y-4.9827
X4.9425Y-2.2827
X4.9425Y-2.3827
X4.9425Y-2.4827
X4.9425Y-2.5827
X4.9425Y-2.7827
X4.9425Y-2.8827
X4.9425Y-2.9827
X4.9425Y-3.0827
X4.9425Y-3.1827
X4.9425Y-3.2827
X4.9425Y-3.3827
X4.9425Y-3.4827
X4.9425Y-3.5827
X4.9425Y-3.6827
X4.9425Y-3.7827
X4.9425Y-3.8827
X4.9425Y-3.9827
X4.9425Y-4.0827
X4.9425Y-4.1827
X4.9425Y-4.2827
X4.9425Y-4.3827
X4.9425Y-4.4827
X4.9425Y-4.5827
X4.9425Y-4.6827
X4.9425Y-4.7827
X4.9425Y-4.8827
X4.9425Y-4.9827
X5.5299Y-2.2827
X5.5299Y-2.3827
X5.5299Y-2.4827
X5.5299Y-2.5827
X5.5299Y-2.7827
X5.5299Y-2.8827
X5.5299Y-2.9827
X5.5299Y-3.0827
X5.5299Y-3.1827
X5.5299Y-3.2827
X5.5299Y-3.3827
X5.5299Y-3.4827
X5.5299Y-3.5827
X5.5299Y-3.6827
X5.5299Y-3.7827
X5.5299Y-3.8827
X5.5299Y-3.9827
X5.5299Y-4.0827
X5.5299Y-4.1827
X5.5299Y-4.2827
X5.5299Y-4.3827
X5.5299Y-4.4827
X5.5299Y-4.5827
X5.5299Y-4.6827
X5.5299Y-4.7827
X5.5299Y-4.8827
X5.5299Y-4.9827
X5.7299Y-2.2827
X5.7299Y-2.3827
X5.7299Y-2.4827
X5.7299Y-2.5827
X5.7299Y-2.7827
X5.7299Y-2.8827
X5.7299Y-2.9827
X5.7299Y-3.0827
X5.7299Y-3.1827
X5.7299Y-3.2827
X5.7299Y-3.3827
X5.7299Y-3.4827
X5.7299Y-3.5827
X5.7299Y-3.6827
X5.7299Y-3.7827
X5.7299Y-3.8827
X5.7299Y-3.9827
X5.7299Y-4.0827
X5.7299Y-4.1827
X5.7299Y-4.2827
X5.7299Y-4.3827
X5.7299Y-4.4827
X5.7299Y-4.5827
X5.7299Y-4.6827
X5.7299Y-4.7827
X5.7299Y-4.8827
X5.7299Y-4.9827
X6.3173Y-2.2827
X6.3173Y-2.3827
X6.3173Y-2.4827
X6.3173Y-2.5827
X6.3173Y-2.7827
X6.3173Y-2.8827
X6.3173Y-2.9827
X6.3173Y-3.0827
X6.3173Y-3.1827
X6.3173Y-3.2827
X6.3173Y-3.3827
X6.3173Y-3.4827
X6.3173Y-3.5827
X6.3173Y-3.6827
X6.3173Y-3.7827
X6.3173Y-3.8827
X6.3173Y-3.9827
X6.3173Y-4.0827
X6.3173Y-4.1827
X6.3173Y-4.2827
X6.3173Y-4.3827
X6.3173Y-4.4827
X6.3173Y-4.5827
X6.3173Y-4.6827
X6.3173Y-4.7827
X6.3173Y-4.8827
X6.3173Y-4.9827
X6.5173Y-2.2827
X6.5173Y-2.3827
X6.5173Y-2.4827
X6.5173Y-2.5827
X6.5173Y-2.7827
X6.5173Y-2.8827
X6.5173Y-2.9827
X6.5173Y-3.0827
X6.5173Y-3.1827
X6.5173Y-3.2827
X6.5173Y-3.3827
X6.5173Y-3.4827
X6.5173Y-3.5827
X6.5173Y-3.6827
X6.5173Y-3.7827
X6.5173Y-3.8827
X6.5173Y-3.9827
X6.5173Y-4.0827
X6.5173Y-4.1827
X6.5173Y-4.2827
X6.5173Y-4.3827
X6.5173Y-4.4827
X6.5173Y-4.5827
X6.5173Y-4.6827
X6.5173Y-4.7827
X6.5173Y-4.8827
X6.5173Y-4.9827
T5
X3.1693Y-1.9193
X3.1693Y-2.0965
X3.4252Y-1.9193
X3.4252Y-2.0965
T6
X2.51Y-2.01
X2.71Y-2.01
T7
X1.66Y-5.255
X1.665Y-1.985
X4.1339Y-5.315
X4.1732Y-1.9291
X6.9291Y-1.9291
X6.9291Y-5.31
T0
M30
